# xmcd
#
# Track frame offsets:
#	150
#	18701
#	40831
#	45306
#	71144
#	88199
#	95287
#	109766
#	116833
#	132543
#	149721
#	155132
#	173269
#	186935
#	200699
#	205814
#	210324
#	227593
#	243128
#
# Disc length: 3450 seconds
#
# Revision: 1
# Processed by: cddbd v1.5.2PL0 Copyright (c) Steve Scherf et al.
# Submitted via: audiograbber 1.83.01
#
DISCID=120d7813
DTITLE=Noisia - Split the atom - Disk 1
DYEAR=2012
DGENRE=Elektrocore
TTITLE0=Machine Gun
TTITLE1=My world (feat. Giovanca)
TTITLE2=Shitbox
TTITLE3=Split the atom
TTITLE4=Thursday
TTITLE5=Leakage
TTITLE6=Hand Gestures (feat. Joe Seven)
TTITLE7=Headknot
TTITLE8=Red Heat
TTITLE9=Shellshock (feat. Foreign Beggars)
TTITLE10=Whiskers
TTITLE11=Alpha Centauri
TTITLE12=Soul Purge (feat. Foreign Beggars)
TTITLE13=Diplodocus
TTITLE14=Paper Doll
TTITLE15=Dystopia
TTITLE16=Sunhammer (feat. Amon Tobin)
TTITLE17=Stigma
TTITLE18=Square Feet
EXTD=
EXTT0=
EXTT1=
EXTT2=
EXTT3=
EXTT4=
EXTT5=
EXTT6=
EXTT7=
EXTT8=
EXTT9=
EXTT10=
EXTT11=
EXTT12=
EXTT13=
EXTT14=
EXTT15=
EXTT16=
EXTT17=
EXTT18=
PLAYORDER=
